<mxfile host="app.diagrams.net" agent="Mozilla/5.0 (Macintosh; Intel Mac OS X 10_15_7) AppleWebKit/537.36 (KHTML, like Gecko) Chrome/136.0.0.0 Safari/537.36" version="27.0.6">
  <diagram id="C5RBs43oDa-KdzZeNtuy" name="Page-1">
    <mxGraphModel dx="1018" dy="655" grid="1" gridSize="10" guides="1" tooltips="1" connect="1" arrows="1" fold="1" page="1" pageScale="1" pageWidth="827" pageHeight="1169" math="0" shadow="0">
      <root>
        <mxCell id="WIyWlLk6GJQsqaUBKTNV-0" />
        <mxCell id="WIyWlLk6GJQsqaUBKTNV-1" parent="WIyWlLk6GJQsqaUBKTNV-0" />
        <mxCell id="5yoJ0oaOs3mJgdB9JSAQ-9" style="edgeStyle=orthogonalEdgeStyle;rounded=0;orthogonalLoop=1;jettySize=auto;html=1;entryX=1;entryY=0.5;entryDx=0;entryDy=0;strokeColor=#3333FF;" parent="WIyWlLk6GJQsqaUBKTNV-1" source="Bgh7VfDjB50sTkW0Ix46-0" target="Bgh7VfDjB50sTkW0Ix46-2" edge="1">
          <mxGeometry relative="1" as="geometry">
            <mxPoint x="494" y="480" as="targetPoint" />
            <Array as="points">
              <mxPoint x="780" y="140" />
              <mxPoint x="780" y="500" />
            </Array>
          </mxGeometry>
        </mxCell>
        <mxCell id="5yoJ0oaOs3mJgdB9JSAQ-11" value="2.1 初审通过" style="edgeLabel;html=1;align=center;verticalAlign=middle;resizable=0;points=[];" parent="5yoJ0oaOs3mJgdB9JSAQ-9" vertex="1" connectable="0">
          <mxGeometry x="-0.7755" y="-1" relative="1" as="geometry">
            <mxPoint as="offset" />
          </mxGeometry>
        </mxCell>
        <mxCell id="5yoJ0oaOs3mJgdB9JSAQ-12" value="2.2 质押仓单-》预冻结" style="edgeLabel;html=1;align=center;verticalAlign=middle;resizable=0;points=[];" parent="5yoJ0oaOs3mJgdB9JSAQ-9" vertex="1" connectable="0">
          <mxGeometry x="-0.1469" relative="1" as="geometry">
            <mxPoint x="-70" y="247" as="offset" />
          </mxGeometry>
        </mxCell>
        <mxCell id="5yoJ0oaOs3mJgdB9JSAQ-16" value="2.3 推送信息" style="edgeLabel;html=1;align=center;verticalAlign=middle;resizable=0;points=[];" parent="5yoJ0oaOs3mJgdB9JSAQ-9" vertex="1" connectable="0">
          <mxGeometry x="0.7607" y="3" relative="1" as="geometry">
            <mxPoint x="13" y="-3" as="offset" />
          </mxGeometry>
        </mxCell>
        <mxCell id="5yoJ0oaOs3mJgdB9JSAQ-25" style="edgeStyle=orthogonalEdgeStyle;rounded=0;orthogonalLoop=1;jettySize=auto;html=1;entryX=0.75;entryY=0;entryDx=0;entryDy=0;strokeColor=#3333FF;" parent="WIyWlLk6GJQsqaUBKTNV-1" source="Bgh7VfDjB50sTkW0Ix46-0" target="Bgh7VfDjB50sTkW0Ix46-3" edge="1">
          <mxGeometry relative="1" as="geometry">
            <Array as="points">
              <mxPoint x="144" y="160" />
            </Array>
          </mxGeometry>
        </mxCell>
        <mxCell id="5yoJ0oaOs3mJgdB9JSAQ-26" value="5.3 推送合同审批结果" style="edgeLabel;html=1;align=center;verticalAlign=middle;resizable=0;points=[];" parent="5yoJ0oaOs3mJgdB9JSAQ-25" vertex="1" connectable="0">
          <mxGeometry x="0.5881" y="-1" relative="1" as="geometry">
            <mxPoint x="77" y="-24" as="offset" />
          </mxGeometry>
        </mxCell>
        <mxCell id="Bgh7VfDjB50sTkW0Ix46-0" value="水发供应链平台" style="rounded=0;whiteSpace=wrap;html=1;fillColor=#dae8fc;strokeColor=#6c8ebf;" parent="WIyWlLk6GJQsqaUBKTNV-1" vertex="1">
          <mxGeometry x="334" y="110" width="140" height="60" as="geometry" />
        </mxCell>
        <mxCell id="5yoJ0oaOs3mJgdB9JSAQ-3" style="edgeStyle=orthogonalEdgeStyle;rounded=0;orthogonalLoop=1;jettySize=auto;html=1;entryX=1;entryY=0.5;entryDx=0;entryDy=0;dashed=1;" parent="WIyWlLk6GJQsqaUBKTNV-1" source="Bgh7VfDjB50sTkW0Ix46-1" target="5yoJ0oaOs3mJgdB9JSAQ-2" edge="1">
          <mxGeometry relative="1" as="geometry" />
        </mxCell>
        <mxCell id="5yoJ0oaOs3mJgdB9JSAQ-6" value="控股" style="edgeLabel;html=1;align=center;verticalAlign=middle;resizable=0;points=[];" parent="5yoJ0oaOs3mJgdB9JSAQ-3" vertex="1" connectable="0">
          <mxGeometry x="0.0175" y="1" relative="1" as="geometry">
            <mxPoint as="offset" />
          </mxGeometry>
        </mxCell>
        <mxCell id="Bgh7VfDjB50sTkW0Ix46-1" value="水发农业集团有限公司" style="rounded=0;whiteSpace=wrap;html=1;fillColor=#f5f5f5;fontColor=#333333;strokeColor=#666666;" parent="WIyWlLk6GJQsqaUBKTNV-1" vertex="1">
          <mxGeometry x="434" y="18" width="130" height="60" as="geometry" />
        </mxCell>
        <mxCell id="5yoJ0oaOs3mJgdB9JSAQ-17" style="edgeStyle=orthogonalEdgeStyle;rounded=0;orthogonalLoop=1;jettySize=auto;html=1;entryX=0;entryY=0.5;entryDx=0;entryDy=0;" parent="WIyWlLk6GJQsqaUBKTNV-1" edge="1">
          <mxGeometry relative="1" as="geometry">
            <Array as="points">
              <mxPoint x="364" y="570" />
              <mxPoint x="38" y="570" />
              <mxPoint x="38" y="260" />
            </Array>
            <mxPoint x="364" y="520" as="sourcePoint" />
            <mxPoint x="58" y="260" as="targetPoint" />
          </mxGeometry>
        </mxCell>
        <mxCell id="5yoJ0oaOs3mJgdB9JSAQ-18" value="4.1 确认背景企业" style="edgeLabel;html=1;align=center;verticalAlign=middle;resizable=0;points=[];" parent="5yoJ0oaOs3mJgdB9JSAQ-17" vertex="1" connectable="0">
          <mxGeometry x="-0.902" y="-1" relative="1" as="geometry">
            <mxPoint y="-12" as="offset" />
          </mxGeometry>
        </mxCell>
        <mxCell id="5yoJ0oaOs3mJgdB9JSAQ-19" value="4.2 征信授权" style="edgeLabel;html=1;align=center;verticalAlign=middle;resizable=0;points=[];" parent="5yoJ0oaOs3mJgdB9JSAQ-17" vertex="1" connectable="0">
          <mxGeometry x="-0.3084" y="-1" relative="1" as="geometry">
            <mxPoint as="offset" />
          </mxGeometry>
        </mxCell>
        <mxCell id="5yoJ0oaOs3mJgdB9JSAQ-20" value="4.3 业务审批" style="edgeLabel;html=1;align=center;verticalAlign=middle;resizable=0;points=[];" parent="5yoJ0oaOs3mJgdB9JSAQ-17" vertex="1" connectable="0">
          <mxGeometry x="0.5052" y="-2" relative="1" as="geometry">
            <mxPoint as="offset" />
          </mxGeometry>
        </mxCell>
        <mxCell id="5yoJ0oaOs3mJgdB9JSAQ-23" style="edgeStyle=orthogonalEdgeStyle;rounded=0;orthogonalLoop=1;jettySize=auto;html=1;entryX=1;entryY=0.75;entryDx=0;entryDy=0;" parent="WIyWlLk6GJQsqaUBKTNV-1" source="Bgh7VfDjB50sTkW0Ix46-2" target="Bgh7VfDjB50sTkW0Ix46-0" edge="1">
          <mxGeometry relative="1" as="geometry">
            <Array as="points">
              <mxPoint x="450" y="430" />
              <mxPoint x="740" y="430" />
              <mxPoint x="740" y="155" />
            </Array>
          </mxGeometry>
        </mxCell>
        <mxCell id="5yoJ0oaOs3mJgdB9JSAQ-24" value="5.2 推送合同审批结果" style="edgeLabel;html=1;align=center;verticalAlign=middle;resizable=0;points=[];" parent="5yoJ0oaOs3mJgdB9JSAQ-23" vertex="1" connectable="0">
          <mxGeometry x="-0.6058" y="-1" relative="1" as="geometry">
            <mxPoint as="offset" />
          </mxGeometry>
        </mxCell>
        <mxCell id="5yoJ0oaOs3mJgdB9JSAQ-30" style="edgeStyle=orthogonalEdgeStyle;rounded=0;orthogonalLoop=1;jettySize=auto;html=1;exitX=0.75;exitY=1;exitDx=0;exitDy=0;entryX=0;entryY=0.25;entryDx=0;entryDy=0;" parent="WIyWlLk6GJQsqaUBKTNV-1" source="Bgh7VfDjB50sTkW0Ix46-2" target="5yoJ0oaOs3mJgdB9JSAQ-29" edge="1">
          <mxGeometry relative="1" as="geometry">
            <Array as="points">
              <mxPoint x="434" y="625" />
            </Array>
          </mxGeometry>
        </mxCell>
        <mxCell id="5yoJ0oaOs3mJgdB9JSAQ-31" value="6. 核实仓单" style="edgeLabel;html=1;align=center;verticalAlign=middle;resizable=0;points=[];" parent="5yoJ0oaOs3mJgdB9JSAQ-30" vertex="1" connectable="0">
          <mxGeometry x="-0.0343" relative="1" as="geometry">
            <mxPoint x="34" y="6" as="offset" />
          </mxGeometry>
        </mxCell>
        <mxCell id="5yoJ0oaOs3mJgdB9JSAQ-40" style="edgeStyle=orthogonalEdgeStyle;rounded=0;orthogonalLoop=1;jettySize=auto;html=1;entryX=1;entryY=0.25;entryDx=0;entryDy=0;" parent="WIyWlLk6GJQsqaUBKTNV-1" source="Bgh7VfDjB50sTkW0Ix46-2" target="Bgh7VfDjB50sTkW0Ix46-3" edge="1">
          <mxGeometry relative="1" as="geometry">
            <Array as="points">
              <mxPoint x="400" y="255" />
            </Array>
          </mxGeometry>
        </mxCell>
        <mxCell id="5yoJ0oaOs3mJgdB9JSAQ-41" value="9. 授信额度启用" style="edgeLabel;html=1;align=center;verticalAlign=middle;resizable=0;points=[];" parent="5yoJ0oaOs3mJgdB9JSAQ-40" vertex="1" connectable="0">
          <mxGeometry x="0.4471" relative="1" as="geometry">
            <mxPoint as="offset" />
          </mxGeometry>
        </mxCell>
        <mxCell id="5yoJ0oaOs3mJgdB9JSAQ-42" style="edgeStyle=orthogonalEdgeStyle;rounded=0;orthogonalLoop=1;jettySize=auto;html=1;entryX=1;entryY=0.5;entryDx=0;entryDy=0;" parent="WIyWlLk6GJQsqaUBKTNV-1" source="Bgh7VfDjB50sTkW0Ix46-2" target="Bgh7VfDjB50sTkW0Ix46-3" edge="1">
          <mxGeometry relative="1" as="geometry">
            <Array as="points">
              <mxPoint x="390" y="270" />
            </Array>
          </mxGeometry>
        </mxCell>
        <mxCell id="5yoJ0oaOs3mJgdB9JSAQ-43" value="10. 1 贷款发放" style="edgeLabel;html=1;align=center;verticalAlign=middle;resizable=0;points=[];" parent="5yoJ0oaOs3mJgdB9JSAQ-42" vertex="1" connectable="0">
          <mxGeometry x="0.4838" y="3" relative="1" as="geometry">
            <mxPoint as="offset" />
          </mxGeometry>
        </mxCell>
        <mxCell id="5yoJ0oaOs3mJgdB9JSAQ-63" style="edgeStyle=orthogonalEdgeStyle;rounded=0;orthogonalLoop=1;jettySize=auto;html=1;exitX=0.75;exitY=0;exitDx=0;exitDy=0;entryX=0.75;entryY=1;entryDx=0;entryDy=0;" parent="WIyWlLk6GJQsqaUBKTNV-1" source="Bgh7VfDjB50sTkW0Ix46-2" target="Bgh7VfDjB50sTkW0Ix46-0" edge="1">
          <mxGeometry relative="1" as="geometry">
            <Array as="points">
              <mxPoint x="434" y="410" />
              <mxPoint x="720" y="410" />
              <mxPoint x="720" y="190" />
              <mxPoint x="439" y="190" />
            </Array>
          </mxGeometry>
        </mxCell>
        <mxCell id="5yoJ0oaOs3mJgdB9JSAQ-64" value="10.2 放款信息推送水发平台" style="edgeLabel;html=1;align=center;verticalAlign=middle;resizable=0;points=[];" parent="5yoJ0oaOs3mJgdB9JSAQ-63" vertex="1" connectable="0">
          <mxGeometry x="-0.6471" relative="1" as="geometry">
            <mxPoint as="offset" />
          </mxGeometry>
        </mxCell>
        <mxCell id="Bgh7VfDjB50sTkW0Ix46-2" value="南京银行" style="whiteSpace=wrap;html=1;fillColor=#f8cecc;strokeColor=#b85450;" parent="WIyWlLk6GJQsqaUBKTNV-1" vertex="1">
          <mxGeometry x="344" y="470" width="120" height="60" as="geometry" />
        </mxCell>
        <mxCell id="5yoJ0oaOs3mJgdB9JSAQ-7" style="edgeStyle=orthogonalEdgeStyle;rounded=0;orthogonalLoop=1;jettySize=auto;html=1;strokeColor=#FF0000;" parent="WIyWlLk6GJQsqaUBKTNV-1" source="Bgh7VfDjB50sTkW0Ix46-3" target="Bgh7VfDjB50sTkW0Ix46-0" edge="1">
          <mxGeometry relative="1" as="geometry">
            <mxPoint x="334" y="140" as="targetPoint" />
            <Array as="points">
              <mxPoint x="114" y="140" />
            </Array>
          </mxGeometry>
        </mxCell>
        <mxCell id="5yoJ0oaOs3mJgdB9JSAQ-8" value="1. 开立电子仓单" style="edgeLabel;html=1;align=center;verticalAlign=middle;resizable=0;points=[];" parent="5yoJ0oaOs3mJgdB9JSAQ-7" vertex="1" connectable="0">
          <mxGeometry x="0.0821" relative="1" as="geometry">
            <mxPoint as="offset" />
          </mxGeometry>
        </mxCell>
        <mxCell id="5yoJ0oaOs3mJgdB9JSAQ-13" style="edgeStyle=orthogonalEdgeStyle;rounded=0;orthogonalLoop=1;jettySize=auto;html=1;entryX=0;entryY=0.5;entryDx=0;entryDy=0;strokeColor=light-dark(#ff0000, #ededed);" parent="WIyWlLk6GJQsqaUBKTNV-1" source="Bgh7VfDjB50sTkW0Ix46-3" target="Bgh7VfDjB50sTkW0Ix46-2" edge="1">
          <mxGeometry relative="1" as="geometry">
            <Array as="points">
              <mxPoint x="114" y="500" />
            </Array>
          </mxGeometry>
        </mxCell>
        <mxCell id="5yoJ0oaOs3mJgdB9JSAQ-14" value="3. 跳转鑫微厅进行申请借款" style="edgeLabel;html=1;align=center;verticalAlign=middle;resizable=0;points=[];" parent="5yoJ0oaOs3mJgdB9JSAQ-13" vertex="1" connectable="0">
          <mxGeometry x="-0.1136" y="1" relative="1" as="geometry">
            <mxPoint x="102" y="9" as="offset" />
          </mxGeometry>
        </mxCell>
        <mxCell id="5yoJ0oaOs3mJgdB9JSAQ-38" style="edgeStyle=orthogonalEdgeStyle;rounded=0;orthogonalLoop=1;jettySize=auto;html=1;exitX=0.75;exitY=1;exitDx=0;exitDy=0;strokeColor=light-dark(#fa0000, #EDEDED);" parent="WIyWlLk6GJQsqaUBKTNV-1" source="Bgh7VfDjB50sTkW0Ix46-3" edge="1">
          <mxGeometry relative="1" as="geometry">
            <mxPoint x="360" y="470" as="targetPoint" />
            <Array as="points">
              <mxPoint x="144" y="440" />
              <mxPoint x="360" y="440" />
              <mxPoint x="360" y="470" />
            </Array>
          </mxGeometry>
        </mxCell>
        <mxCell id="5yoJ0oaOs3mJgdB9JSAQ-39" value="5.1 仓单质押合同签约（不启用额度）" style="edgeLabel;html=1;align=center;verticalAlign=middle;resizable=0;points=[];" parent="5yoJ0oaOs3mJgdB9JSAQ-38" vertex="1" connectable="0">
          <mxGeometry x="-0.0723" relative="1" as="geometry">
            <mxPoint x="61" as="offset" />
          </mxGeometry>
        </mxCell>
        <mxCell id="5yoJ0oaOs3mJgdB9JSAQ-46" style="edgeStyle=orthogonalEdgeStyle;rounded=0;orthogonalLoop=1;jettySize=auto;html=1;exitX=0.25;exitY=1;exitDx=0;exitDy=0;entryX=0;entryY=0.75;entryDx=0;entryDy=0;strokeColor=#FF0000;" parent="WIyWlLk6GJQsqaUBKTNV-1" source="Bgh7VfDjB50sTkW0Ix46-3" target="Bgh7VfDjB50sTkW0Ix46-2" edge="1">
          <mxGeometry relative="1" as="geometry" />
        </mxCell>
        <mxCell id="5yoJ0oaOs3mJgdB9JSAQ-47" value="11. 通过鑫联税&lt;br&gt;-》贷款归还" style="edgeLabel;html=1;align=center;verticalAlign=middle;resizable=0;points=[];" parent="5yoJ0oaOs3mJgdB9JSAQ-46" vertex="1" connectable="0">
          <mxGeometry x="-0.6878" y="-2" relative="1" as="geometry">
            <mxPoint x="-7" y="16" as="offset" />
          </mxGeometry>
        </mxCell>
        <mxCell id="Bgh7VfDjB50sTkW0Ix46-3" value="货主" style="whiteSpace=wrap;html=1;fillColor=#ffe6cc;strokeColor=#d79b00;" parent="WIyWlLk6GJQsqaUBKTNV-1" vertex="1">
          <mxGeometry x="54" y="240" width="120" height="60" as="geometry" />
        </mxCell>
        <mxCell id="5yoJ0oaOs3mJgdB9JSAQ-4" style="edgeStyle=orthogonalEdgeStyle;rounded=0;orthogonalLoop=1;jettySize=auto;html=1;entryX=0.5;entryY=0;entryDx=0;entryDy=0;dashed=1;curved=1;" parent="WIyWlLk6GJQsqaUBKTNV-1" source="5yoJ0oaOs3mJgdB9JSAQ-2" target="Bgh7VfDjB50sTkW0Ix46-0" edge="1">
          <mxGeometry relative="1" as="geometry" />
        </mxCell>
        <mxCell id="5yoJ0oaOs3mJgdB9JSAQ-5" value="开发、运营" style="edgeLabel;html=1;align=center;verticalAlign=middle;resizable=0;points=[];" parent="5yoJ0oaOs3mJgdB9JSAQ-4" vertex="1" connectable="0">
          <mxGeometry x="0.0043" relative="1" as="geometry">
            <mxPoint as="offset" />
          </mxGeometry>
        </mxCell>
        <mxCell id="5yoJ0oaOs3mJgdB9JSAQ-2" value="水发大正科技服务有限公司" style="whiteSpace=wrap;html=1;fillColor=#f5f5f5;fontColor=#333333;strokeColor=#666666;" parent="WIyWlLk6GJQsqaUBKTNV-1" vertex="1">
          <mxGeometry x="244" y="18" width="120" height="60" as="geometry" />
        </mxCell>
        <mxCell id="5yoJ0oaOs3mJgdB9JSAQ-32" style="edgeStyle=orthogonalEdgeStyle;rounded=0;orthogonalLoop=1;jettySize=auto;html=1;exitX=0.75;exitY=0;exitDx=0;exitDy=0;entryX=1;entryY=0.75;entryDx=0;entryDy=0;strokeColor=#97D077;" parent="WIyWlLk6GJQsqaUBKTNV-1" source="5yoJ0oaOs3mJgdB9JSAQ-29" target="Bgh7VfDjB50sTkW0Ix46-2" edge="1">
          <mxGeometry relative="1" as="geometry" />
        </mxCell>
        <mxCell id="5yoJ0oaOs3mJgdB9JSAQ-33" value="7.1 质押登记，并推送质押登记结果" style="edgeLabel;html=1;align=center;verticalAlign=middle;resizable=0;points=[];" parent="5yoJ0oaOs3mJgdB9JSAQ-32" vertex="1" connectable="0">
          <mxGeometry x="-0.5669" y="1" relative="1" as="geometry">
            <mxPoint as="offset" />
          </mxGeometry>
        </mxCell>
        <mxCell id="5yoJ0oaOs3mJgdB9JSAQ-34" style="edgeStyle=orthogonalEdgeStyle;rounded=0;orthogonalLoop=1;jettySize=auto;html=1;entryX=1;entryY=0.25;entryDx=0;entryDy=0;strokeColor=#97D077;" parent="WIyWlLk6GJQsqaUBKTNV-1" source="5yoJ0oaOs3mJgdB9JSAQ-29" target="Bgh7VfDjB50sTkW0Ix46-0" edge="1">
          <mxGeometry relative="1" as="geometry">
            <Array as="points">
              <mxPoint x="810" y="630" />
              <mxPoint x="810" y="125" />
            </Array>
          </mxGeometry>
        </mxCell>
        <mxCell id="5yoJ0oaOs3mJgdB9JSAQ-35" value="7.2 质押登记，并推送质押登记结果" style="edgeLabel;html=1;align=center;verticalAlign=middle;resizable=0;points=[];" parent="5yoJ0oaOs3mJgdB9JSAQ-34" vertex="1" connectable="0">
          <mxGeometry x="-0.8305" y="2" relative="1" as="geometry">
            <mxPoint as="offset" />
          </mxGeometry>
        </mxCell>
        <mxCell id="5yoJ0oaOs3mJgdB9JSAQ-29" value="中登网" style="rounded=0;whiteSpace=wrap;html=1;fillColor=#e1d5e7;strokeColor=#9673a6;" parent="WIyWlLk6GJQsqaUBKTNV-1" vertex="1">
          <mxGeometry x="520" y="610" width="120" height="60" as="geometry" />
        </mxCell>
        <mxCell id="5yoJ0oaOs3mJgdB9JSAQ-36" style="edgeStyle=orthogonalEdgeStyle;rounded=0;orthogonalLoop=1;jettySize=auto;html=1;exitX=0.75;exitY=1;exitDx=0;exitDy=0;strokeColor=#97D077;" parent="WIyWlLk6GJQsqaUBKTNV-1" source="5yoJ0oaOs3mJgdB9JSAQ-29" target="5yoJ0oaOs3mJgdB9JSAQ-29" edge="1">
          <mxGeometry relative="1" as="geometry">
            <Array as="points">
              <mxPoint x="610" y="720" />
              <mxPoint x="550" y="720" />
            </Array>
          </mxGeometry>
        </mxCell>
        <mxCell id="5yoJ0oaOs3mJgdB9JSAQ-37" value="8. 完成电子仓单入库登记" style="edgeLabel;html=1;align=center;verticalAlign=middle;resizable=0;points=[];" parent="5yoJ0oaOs3mJgdB9JSAQ-36" vertex="1" connectable="0">
          <mxGeometry x="-0.0194" y="1" relative="1" as="geometry">
            <mxPoint as="offset" />
          </mxGeometry>
        </mxCell>
        <mxCell id="5yoJ0oaOs3mJgdB9JSAQ-48" style="edgeStyle=orthogonalEdgeStyle;rounded=0;orthogonalLoop=1;jettySize=auto;html=1;exitX=0;exitY=0.25;exitDx=0;exitDy=0;strokeColor=#FF0000;" parent="WIyWlLk6GJQsqaUBKTNV-1" source="Bgh7VfDjB50sTkW0Ix46-3" edge="1">
          <mxGeometry relative="1" as="geometry">
            <mxPoint x="410" y="531" as="targetPoint" />
            <Array as="points">
              <mxPoint x="10" y="255" />
              <mxPoint x="10" y="620" />
              <mxPoint x="410" y="620" />
            </Array>
          </mxGeometry>
        </mxCell>
        <mxCell id="5yoJ0oaOs3mJgdB9JSAQ-49" value="12.1 鑫微厅发起解押流程" style="edgeLabel;html=1;align=center;verticalAlign=middle;resizable=0;points=[];" parent="5yoJ0oaOs3mJgdB9JSAQ-48" vertex="1" connectable="0">
          <mxGeometry x="0.1328" relative="1" as="geometry">
            <mxPoint as="offset" />
          </mxGeometry>
        </mxCell>
        <mxCell id="5yoJ0oaOs3mJgdB9JSAQ-51" style="edgeStyle=orthogonalEdgeStyle;rounded=0;orthogonalLoop=1;jettySize=auto;html=1;exitX=0.25;exitY=0;exitDx=0;exitDy=0;entryX=1.007;entryY=0.884;entryDx=0;entryDy=0;entryPerimeter=0;" parent="WIyWlLk6GJQsqaUBKTNV-1" source="Bgh7VfDjB50sTkW0Ix46-2" target="Bgh7VfDjB50sTkW0Ix46-3" edge="1">
          <mxGeometry relative="1" as="geometry" />
        </mxCell>
        <mxCell id="5yoJ0oaOs3mJgdB9JSAQ-52" value="12.2 客户经理发起解押-》鑫微厅" style="edgeLabel;html=1;align=center;verticalAlign=middle;resizable=0;points=[];" parent="5yoJ0oaOs3mJgdB9JSAQ-51" vertex="1" connectable="0">
          <mxGeometry x="0.7008" y="-1" relative="1" as="geometry">
            <mxPoint x="39" y="1" as="offset" />
          </mxGeometry>
        </mxCell>
        <mxCell id="5yoJ0oaOs3mJgdB9JSAQ-54" style="edgeStyle=orthogonalEdgeStyle;rounded=0;orthogonalLoop=1;jettySize=auto;html=1;" parent="WIyWlLk6GJQsqaUBKTNV-1" source="Bgh7VfDjB50sTkW0Ix46-2" target="Bgh7VfDjB50sTkW0Ix46-0" edge="1">
          <mxGeometry relative="1" as="geometry">
            <Array as="points">
              <mxPoint x="420" y="390" />
              <mxPoint x="700" y="390" />
              <mxPoint x="700" y="210" />
              <mxPoint x="421" y="210" />
            </Array>
          </mxGeometry>
        </mxCell>
        <mxCell id="5yoJ0oaOs3mJgdB9JSAQ-55" value="12.3 解押通知" style="edgeLabel;html=1;align=center;verticalAlign=middle;resizable=0;points=[];" parent="5yoJ0oaOs3mJgdB9JSAQ-54" vertex="1" connectable="0">
          <mxGeometry x="-0.6628" y="1" relative="1" as="geometry">
            <mxPoint as="offset" />
          </mxGeometry>
        </mxCell>
        <mxCell id="5yoJ0oaOs3mJgdB9JSAQ-56" style="edgeStyle=orthogonalEdgeStyle;rounded=0;orthogonalLoop=1;jettySize=auto;html=1;exitX=0.5;exitY=1;exitDx=0;exitDy=0;strokeColor=#3333FF;" parent="WIyWlLk6GJQsqaUBKTNV-1" source="Bgh7VfDjB50sTkW0Ix46-0" edge="1">
          <mxGeometry relative="1" as="geometry">
            <mxPoint x="410" y="470" as="targetPoint" />
            <Array as="points">
              <mxPoint x="404" y="230" />
              <mxPoint x="680" y="230" />
              <mxPoint x="680" y="360" />
              <mxPoint x="410" y="360" />
            </Array>
          </mxGeometry>
        </mxCell>
        <mxCell id="5yoJ0oaOs3mJgdB9JSAQ-57" value="13.1 贷后预警（大蒜价格）推送" style="edgeLabel;html=1;align=center;verticalAlign=middle;resizable=0;points=[];" parent="5yoJ0oaOs3mJgdB9JSAQ-56" vertex="1" connectable="0">
          <mxGeometry x="0.6448" relative="1" as="geometry">
            <mxPoint x="64" as="offset" />
          </mxGeometry>
        </mxCell>
        <mxCell id="5yoJ0oaOs3mJgdB9JSAQ-58" style="edgeStyle=orthogonalEdgeStyle;rounded=0;orthogonalLoop=1;jettySize=auto;html=1;entryX=0.999;entryY=0.09;entryDx=0;entryDy=0;entryPerimeter=0;" parent="WIyWlLk6GJQsqaUBKTNV-1" source="Bgh7VfDjB50sTkW0Ix46-2" target="Bgh7VfDjB50sTkW0Ix46-3" edge="1">
          <mxGeometry relative="1" as="geometry">
            <Array as="points">
              <mxPoint x="404" y="245" />
            </Array>
          </mxGeometry>
        </mxCell>
        <mxCell id="5yoJ0oaOs3mJgdB9JSAQ-59" value="13.2 调节授信额度" style="edgeLabel;html=1;align=center;verticalAlign=middle;resizable=0;points=[];" parent="5yoJ0oaOs3mJgdB9JSAQ-58" vertex="1" connectable="0">
          <mxGeometry x="0.4908" y="-1" relative="1" as="geometry">
            <mxPoint x="-15" y="-5" as="offset" />
          </mxGeometry>
        </mxCell>
      </root>
    </mxGraphModel>
  </diagram>
</mxfile>
